<?xml version="1.0" encoding="UTF-8" standalone="no"?>
<svg
   width="128"
   height="128"
   viewBox="0 0 67.733 67.734"
   class="sc-bdVaJa kNFmDB"
   version="1.1"
   id="svg6"
   sodipodi:docname="oci-vela.svg"
   inkscape:version="1.4.2 (ebf0e940d0, 2025-05-08)"
   xmlns:inkscape="http://www.inkscape.org/namespaces/inkscape"
   xmlns:sodipodi="http://sodipodi.sourceforge.net/DTD/sodipodi-0.dtd"
   xmlns="http://www.w3.org/2000/svg"
   xmlns:svg="http://www.w3.org/2000/svg">
  <defs
     id="defs6" />
  <sodipodi:namedview
     id="namedview6"
     pagecolor="#ffffff"
     bordercolor="#000000"
     borderopacity="0.25"
     inkscape:showpageshadow="2"
     inkscape:pageopacity="0.0"
     inkscape:pagecheckerboard="0"
     inkscape:deskcolor="#d1d1d1"
     inkscape:zoom="5.12"
     inkscape:cx="80.078125"
     inkscape:cy="58.886719"
     inkscape:window-width="1894"
     inkscape:window-height="1011"
     inkscape:window-x="1930"
     inkscape:window-y="56"
     inkscape:window-maximized="1"
     inkscape:current-layer="g7" />
  <g
     id="g7"
     transform="translate(0.04955,0.1541)">
    <g
       id="g3"
       transform="matrix(3.6003532,0,0,3.6003532,-12.667674,-27.294905)">
      <path
         d="m 8.0371,18.802 c 5.4446,1.9951 7.6955,3.8855 9.8957,5.7742 3.3044,-5.5306 3.3747,-10.488 2.4076,-15.262 -2.3667,4.4289 -6.5089,7.5615 -12.303,9.4877 z"
         fill="#fdbe4c"
         id="path1" />
      <path
         d="m 6.0008,15.294 c 4.7427,3.3363 6.4276,5.7448 8.0641,8.1387 4.6232,-4.487 5.9743,-9.2574 6.2757,-14.119 -3.4324,3.6655 -8.2442,5.6192 -14.34,5.9801 z"
         fill="#ee654c"
         id="path2" />
      <path
         d="m 4.9416,11.379 c 3.7176,4.4501 4.7217,7.2127 5.6829,9.9485 5.627,-3.1375 8.1667,-7.3957 9.716,-12.013 -4.2641,2.6522 -9.4176,3.294 -15.399,2.0649 z"
         fill="#55b788"
         id="path3" />
    </g>
    <g
       id="g6"
       style="display:none;fill:#1a1a1a">
      <path
         fill="#fff"
         d="m 59.65,8.7924 h 3.0424 v 15.974 H 59.65 Z"
         id="path4"
         style="fill:#1a1a1a" />
      <path
         fill="#fff"
         d="m 55.289,20.66295 c -1.0462,1.1327 -2.5434,1.8426 -4.2068,1.8426 -3.1625,0 -5.7262,-2.5637 -5.7262,-5.7262 0,-3.1625 2.5637,-5.7262 5.7262,-5.7262 1.6635,0 3.1607,0.70993 4.2068,1.8426 v -3.0791 c -1.2275,-0.74324 -2.6672,-1.1713 -4.2068,-1.1713 -4.4922,0 -8.134,3.6417 -8.134,8.134 0,4.4922 3.6417,8.1341 8.134,8.1341 1.5397,0 2.9794,-0.42808 4.2068,-1.1713 z"
         id="path5"
         style="fill:#1a1a1a" />
      <path
         fill="#fff"
         d="m 32.726,8.6454 c -4.4922,0 -8.134,3.6417 -8.134,8.134 0,4.4921 3.6418,8.134 8.134,8.134 4.4922,0 8.134,-3.6418 8.134,-8.134 0,-4.4922 -3.6418,-8.134 -8.134,-8.134 z m 0,13.86 c -3.1625,0 -5.7262,-2.5637 -5.7262,-5.7261 0,-3.1625 2.5637,-5.7262 5.7262,-5.7262 3.1625,0 5.7262,2.5637 5.7262,5.7262 0,3.1625 -2.5637,5.7261 -5.7262,5.7261 z"
         id="path6"
         style="fill:#1a1a1a" />
    </g>
  </g>
</svg>
