<svg width="589" height="96" viewBox="0 0 589 96" fill="none" xmlns="http://www.w3.org/2000/svg">
<rect width="96" height="96" rx="24" fill="white"/>
<path d="M27.0176 56.308C50.1472 64.7835 59.7094 72.8143 69.0563 80.8378C83.094 57.3428 83.3926 36.2829 79.2842 16.0021C69.23 34.8169 51.632 48.1251 27.0176 56.308Z" fill="#FDBE4C"/>
<path d="M18.367 41.4054C38.5149 55.5786 45.6726 65.8103 52.6248 75.98C72.2649 56.9184 78.0046 36.6529 79.285 16C64.7036 31.5717 44.2631 39.8722 18.367 41.4054Z" fill="#EE654C"/>
<path d="M13.8674 24.7735C29.6604 43.6784 33.926 55.4144 38.0094 67.0365C61.9138 53.7079 72.7029 35.6183 79.2846 16.0032C61.17 27.2702 39.2774 29.995 13.8674 24.7735Z" fill="#55B788"/>
<path d="M141.931 71.0843C133.274 70.1385 126.136 64.9857 122.72 57.2181C121.465 54.3634 120.875 51.4135 120.875 47.9904C120.875 45.1624 121.163 43.3095 121.988 40.8144C123.109 37.4241 124.798 34.5946 127.221 32.0475C134.135 24.78 144.973 22.8063 154.008 27.169C160.72 30.4099 165.273 36.3989 166.75 43.931C167.169 46.0687 167.127 50.3761 166.666 52.5422C165.692 57.1187 163.543 61.0958 160.287 64.3528C156.985 67.6542 152.946 69.8142 148.383 70.7189C146.893 71.0144 143.203 71.2233 141.931 71.0843ZM148.049 63.8247C151.11 63.0214 153.526 61.5807 155.771 59.2207C158.954 55.8732 160.421 51.9772 160.244 47.3476C160.16 45.1854 159.816 43.5693 159.042 41.7024C157.097 37.0158 153.003 33.4829 147.969 32.1477C146.597 31.7836 146.055 31.7252 143.997 31.7188C142.006 31.7126 141.379 31.7719 140.194 32.0782C136.011 33.1593 132.583 35.5827 130.269 39.0959C126.877 44.2446 126.709 50.9274 129.837 56.2499C132.226 60.3147 136.395 63.2272 141.11 64.1263C142.87 64.4619 146.166 64.3186 148.049 63.8247Z" fill="white"/>
<path d="M193.168 70.9602C187.986 70.2415 183.366 67.9664 179.755 64.3545C176.556 61.156 174.317 56.9741 173.381 52.4504C173.016 50.6854 172.896 47.0611 173.139 45.1235C174.385 35.1846 181.611 27.3974 191.583 25.2489C193.496 24.8366 198.708 24.8354 200.637 25.2469C202.621 25.67 205.085 26.5299 206.692 27.3599L208.106 28.0899V32.4656V36.8413L207.341 36.1265C203.869 32.8786 199.078 31.2197 194.594 31.7131C190.631 32.1492 187.384 33.6797 184.658 36.3963C182.13 38.9152 180.525 42.0088 179.974 45.4231C179.665 47.3407 179.846 50.5342 180.364 52.2917C182.191 58.4881 187.009 62.8825 193.268 64.0606C195.122 64.4095 198.279 64.3049 200.04 63.8361C202.648 63.1415 204.783 62.0258 206.817 60.2934L208.111 59.1917L208.068 63.5283L208.026 67.865L206.596 68.6104C204.932 69.4779 202.4 70.3541 200.478 70.7277C198.9 71.0345 194.672 71.1689 193.168 70.9602Z" fill="white"/>
<path d="M220.543 48V25.2757H224.834H229.125V48V70.7243H224.834H220.543V48Z" fill="white"/>
<path d="M270 34V62H268V34H270Z" fill="white"/>
<path d="M311.272 56.672C312.147 56.672 313.075 56.576 314.056 56.384C315.059 56.192 315.955 55.936 316.744 55.616V59.04C315.571 59.5093 314.515 59.8293 313.576 60C312.659 60.192 311.699 60.288 310.696 60.288C307.517 60.288 305.299 59.4987 304.04 57.92C302.781 56.32 302.152 53.6533 302.152 49.92C302.152 46.3573 302.899 43.7547 304.392 42.112C305.885 40.448 308.285 39.616 311.592 39.616C312.573 39.616 313.448 39.6373 314.216 39.68C314.984 39.7227 315.677 39.7973 316.296 39.904V43.264C315.485 43.2 314.696 43.1573 313.928 43.136C313.181 43.0933 312.403 43.072 311.592 43.072C309.437 43.072 307.976 43.5733 307.208 44.576C306.461 45.5787 306.088 47.36 306.088 49.92C306.088 52.48 306.429 54.2507 307.112 55.232C307.816 56.192 309.203 56.672 311.272 56.672ZM333.63 52.064C333.63 55.0507 333.054 57.1733 331.902 58.432C330.772 59.6693 328.83 60.288 326.078 60.288C323.284 60.288 321.321 59.68 320.19 58.464C319.06 57.2267 318.494 55.0933 318.494 52.064C318.494 49.0987 319.07 46.9973 320.222 45.76C321.374 44.5013 323.326 43.872 326.078 43.872C328.852 43.872 330.804 44.4907 331.934 45.728C333.065 46.944 333.63 49.056 333.63 52.064ZM322.206 52.032C322.206 53.9947 322.452 55.2853 322.942 55.904C323.433 56.5227 324.478 56.832 326.078 56.832C327.636 56.832 328.66 56.5227 329.15 55.904C329.662 55.264 329.918 53.9733 329.918 52.032C329.918 50.048 329.673 48.7467 329.182 48.128C328.713 47.5093 327.678 47.2 326.078 47.2C324.5 47.2 323.454 47.52 322.942 48.16C322.452 48.8 322.206 50.0907 322.206 52.032ZM340.191 60H336.479V44.192H339.679L339.839 45.792H339.935C340.681 45.1307 341.481 44.6507 342.335 44.352C343.209 44.032 344.233 43.872 345.407 43.872C347.156 43.872 348.489 44.3093 349.407 45.184C350.324 46.0587 350.783 47.3493 350.783 49.056V60H347.071V49.536C347.071 48.768 346.815 48.192 346.303 47.808C345.812 47.4027 345.076 47.2 344.095 47.2C343.391 47.2 342.708 47.296 342.047 47.488C341.385 47.6587 340.767 47.9253 340.191 48.288V60ZM363.898 56.544V59.712C363.535 59.8613 363.023 59.9893 362.362 60.096C361.722 60.224 361.135 60.288 360.602 60.288C358.575 60.288 357.125 59.8507 356.25 58.976C355.375 58.08 354.938 56.5973 354.938 54.528V47.296H352.826V44.192H355.034L355.546 40.416H358.65V44.192H363.706V47.296H358.65V54.4C358.65 55.3387 358.853 55.9787 359.258 56.32C359.663 56.6613 360.389 56.832 361.434 56.832C361.797 56.832 362.223 56.8107 362.714 56.768C363.205 56.704 363.599 56.6293 363.898 56.544ZM369.753 60H366.041V44.192H369.465L369.625 45.472H369.721C370.511 45.0027 371.311 44.64 372.121 44.384C372.932 44.128 373.721 44 374.489 44C374.703 44 374.841 44 374.905 44C374.991 44 375.055 44.0107 375.097 44.032V47.616C374.969 47.5733 374.799 47.552 374.585 47.552C374.393 47.5307 374.052 47.52 373.561 47.52C372.815 47.52 372.121 47.584 371.481 47.712C370.841 47.84 370.265 48.0213 369.753 48.256V60ZM391.474 52.064C391.474 55.0507 390.898 57.1733 389.746 58.432C388.615 59.6693 386.674 60.288 383.922 60.288C381.127 60.288 379.165 59.68 378.034 58.464C376.903 57.2267 376.338 55.0933 376.338 52.064C376.338 49.0987 376.914 46.9973 378.066 45.76C379.218 44.5013 381.17 43.872 383.922 43.872C386.695 43.872 388.647 44.4907 389.778 45.728C390.909 46.944 391.474 49.056 391.474 52.064ZM380.05 52.032C380.05 53.9947 380.295 55.2853 380.786 55.904C381.277 56.5227 382.322 56.832 383.922 56.832C385.479 56.832 386.503 56.5227 386.994 55.904C387.506 55.264 387.762 53.9733 387.762 52.032C387.762 50.048 387.517 48.7467 387.026 48.128C386.557 47.5093 385.522 47.2 383.922 47.2C382.343 47.2 381.298 47.52 380.786 48.16C380.295 48.8 380.05 50.0907 380.05 52.032ZM398.035 38.72V60H394.323V38.72H398.035ZM413.99 56.128V59.136C413.457 59.456 412.614 59.7333 411.462 59.968C410.331 60.1813 409.147 60.288 407.91 60.288C405.393 60.288 403.579 59.648 402.47 58.368C401.382 57.088 400.838 54.976 400.838 52.032C400.838 49.1947 401.414 47.1253 402.566 45.824C403.718 44.5227 405.542 43.872 408.038 43.872C410.449 43.872 412.155 44.3733 413.158 45.376C414.161 46.3787 414.662 48.096 414.662 50.528C414.662 50.976 414.651 51.392 414.63 51.776C414.609 52.1387 414.566 52.6507 414.502 53.312H404.582C404.603 54.6347 404.891 55.5627 405.446 56.096C406.022 56.6293 407.035 56.896 408.486 56.896C409.446 56.896 410.438 56.8213 411.462 56.672C412.486 56.5227 413.329 56.3413 413.99 56.128ZM408.038 47.104C406.737 47.104 405.83 47.36 405.318 47.872C404.827 48.384 404.582 49.312 404.582 50.656H411.27V49.984C411.249 48.896 411.003 48.1493 410.534 47.744C410.065 47.3173 409.233 47.104 408.038 47.104ZM432.716 38.72H436.428V60H433.164L432.94 58.528H432.78C432.182 59.1253 431.468 59.5733 430.636 59.872C429.825 60.1493 428.886 60.288 427.82 60.288C425.708 60.288 424.193 59.648 423.276 58.368C422.38 57.088 421.932 54.9867 421.932 52.064C421.932 49.184 422.486 47.104 423.596 45.824C424.726 44.5227 426.582 43.872 429.164 43.872C429.846 43.872 430.486 43.9253 431.084 44.032C431.702 44.1173 432.246 44.2453 432.716 44.416V38.72ZM429.676 47.2C428.033 47.2 426.945 47.5307 426.412 48.192C425.9 48.8533 425.644 50.144 425.644 52.064C425.644 53.92 425.868 55.1787 426.316 55.84C426.785 56.5013 427.734 56.832 429.164 56.832C429.846 56.832 430.486 56.768 431.084 56.64C431.681 56.4907 432.225 56.2773 432.716 56V47.744C432.268 47.552 431.798 47.4133 431.308 47.328C430.817 47.2427 430.273 47.2 429.676 47.2ZM452.396 56.128V59.136C451.863 59.456 451.02 59.7333 449.868 59.968C448.738 60.1813 447.554 60.288 446.316 60.288C443.799 60.288 441.986 59.648 440.876 58.368C439.788 57.088 439.244 54.976 439.244 52.032C439.244 49.1947 439.82 47.1253 440.972 45.824C442.124 44.5227 443.948 43.872 446.444 43.872C448.855 43.872 450.562 44.3733 451.564 45.376C452.567 46.3787 453.068 48.096 453.068 50.528C453.068 50.976 453.058 51.392 453.036 51.776C453.015 52.1387 452.972 52.6507 452.908 53.312H442.988C443.01 54.6347 443.298 55.5627 443.852 56.096C444.428 56.6293 445.442 56.896 446.892 56.896C447.852 56.896 448.844 56.8213 449.868 56.672C450.892 56.5227 451.735 56.3413 452.396 56.128ZM446.444 47.104C445.143 47.104 444.236 47.36 443.724 47.872C443.234 48.384 442.988 49.312 442.988 50.656H449.676V49.984C449.655 48.896 449.41 48.1493 448.94 47.744C448.471 47.3173 447.639 47.104 446.444 47.104ZM473.234 52.16H468.882V48.96H476.818V59.072C476.221 59.3493 475.154 59.6267 473.618 59.904C472.082 60.16 470.685 60.288 469.426 60.288C466.034 60.288 463.677 59.4987 462.354 57.92C461.053 56.3413 460.402 53.6853 460.402 49.952C460.402 46.3893 461.17 43.776 462.706 42.112C464.263 40.448 466.717 39.616 470.066 39.616C471.325 39.616 472.445 39.648 473.426 39.712C474.429 39.7547 475.197 39.8293 475.73 39.936V43.296C474.962 43.232 474.077 43.1787 473.074 43.136C472.071 43.0933 471.069 43.072 470.066 43.072C467.869 43.072 466.365 43.5733 465.554 44.576C464.765 45.5787 464.37 47.3707 464.37 49.952C464.37 51.1893 464.434 52.2133 464.562 53.024C464.711 53.8347 464.925 54.496 465.202 55.008C465.565 55.648 466.077 56.1067 466.738 56.384C467.421 56.6613 468.423 56.8 469.746 56.8C470.194 56.8 470.717 56.768 471.314 56.704C471.911 56.64 472.551 56.5547 473.234 56.448V52.16ZM483.503 60.288C481.882 60.288 480.687 59.8933 479.919 59.104C479.173 58.2933 478.799 57.0347 478.799 55.328C478.799 53.5787 479.247 52.3413 480.143 51.616C481.061 50.8907 482.629 50.528 484.847 50.528C485.466 50.528 486.095 50.56 486.735 50.624C487.375 50.688 487.93 50.7733 488.399 50.88V49.536C488.399 48.704 488.143 48.096 487.631 47.712C487.119 47.328 486.309 47.136 485.199 47.136C484.197 47.136 483.301 47.168 482.511 47.232C481.743 47.296 481.007 47.4027 480.303 47.552V44.448C481.114 44.256 481.989 44.1173 482.927 44.032C483.887 43.9253 485.018 43.872 486.319 43.872C488.261 43.872 489.711 44.32 490.671 45.216C491.631 46.0907 492.111 47.4133 492.111 49.184V60H488.687L488.527 58.592H488.463C487.781 59.104 486.991 59.52 486.095 59.84C485.221 60.1387 484.357 60.288 483.503 60.288ZM485.295 53.184C484.143 53.184 483.354 53.3227 482.927 53.6C482.501 53.856 482.287 54.3573 482.287 55.104C482.287 55.8293 482.458 56.352 482.799 56.672C483.162 56.9707 483.77 57.12 484.623 57.12C485.242 57.12 485.893 57.0347 486.575 56.864C487.279 56.672 487.887 56.4373 488.399 56.16V53.44C487.887 53.3547 487.375 53.2907 486.863 53.248C486.373 53.2053 485.85 53.184 485.295 53.184ZM504.117 43.872C506.251 43.872 507.765 44.5013 508.661 45.76C509.557 46.9973 510.005 49.0667 510.005 51.968C510.005 54.912 509.419 57.0347 508.245 58.336C507.093 59.6373 505.184 60.288 502.517 60.288C501.152 60.288 499.872 60.2133 498.677 60.064C497.504 59.9147 496.448 59.7013 495.509 59.424V38.72H499.221V45.12C499.968 44.7147 500.768 44.4053 501.621 44.192C502.475 43.9787 503.307 43.872 504.117 43.872ZM506.293 51.968C506.293 50.112 506.059 48.8533 505.589 48.192C505.141 47.5307 504.203 47.2 502.773 47.2C502.155 47.2 501.525 47.2747 500.885 47.424C500.267 47.552 499.712 47.7333 499.221 47.968V56.544C499.605 56.6507 500.043 56.7253 500.533 56.768C501.024 56.8107 501.6 56.832 502.261 56.832C503.904 56.832 504.981 56.5013 505.493 55.84C506.027 55.1787 506.293 53.888 506.293 51.968ZM516.566 60.288C514.944 60.288 513.75 59.8933 512.982 59.104C512.235 58.2933 511.862 57.0347 511.862 55.328C511.862 53.5787 512.31 52.3413 513.206 51.616C514.123 50.8907 515.691 50.528 517.91 50.528C518.528 50.528 519.158 50.56 519.798 50.624C520.438 50.688 520.992 50.7733 521.462 50.88V49.536C521.462 48.704 521.206 48.096 520.694 47.712C520.182 47.328 519.371 47.136 518.262 47.136C517.259 47.136 516.363 47.168 515.574 47.232C514.806 47.296 514.07 47.4027 513.366 47.552V44.448C514.176 44.256 515.051 44.1173 515.99 44.032C516.95 43.9253 518.08 43.872 519.382 43.872C521.323 43.872 522.774 44.32 523.734 45.216C524.694 46.0907 525.174 47.4133 525.174 49.184V60H521.75L521.59 58.592H521.526C520.843 59.104 520.054 59.52 519.158 59.84C518.283 60.1387 517.419 60.288 516.566 60.288ZM518.358 53.184C517.206 53.184 516.416 53.3227 515.99 53.6C515.563 53.856 515.35 54.3573 515.35 55.104C515.35 55.8293 515.52 56.352 515.862 56.672C516.224 56.9707 516.832 57.12 517.686 57.12C518.304 57.12 518.955 57.0347 519.638 56.864C520.342 56.672 520.95 56.4373 521.462 56.16V53.44C520.95 53.3547 520.438 53.2907 519.926 53.248C519.435 53.2053 518.912 53.184 518.358 53.184ZM532.316 60H528.604V44.192H532.028L532.188 45.472H532.284C533.073 45.0027 533.873 44.64 534.684 44.384C535.494 44.128 536.284 44 537.052 44C537.265 44 537.404 44 537.468 44C537.553 44 537.617 44.0107 537.66 44.032V47.616C537.532 47.5733 537.361 47.552 537.148 47.552C536.956 47.5307 536.614 47.52 536.124 47.52C535.377 47.52 534.684 47.584 534.044 47.712C533.404 47.84 532.828 48.0213 532.316 48.256V60ZM543.724 41.952H539.788V38.72H543.724V41.952ZM543.628 60H539.916V44.192H543.628V60ZM556.992 56.544V59.712C556.629 59.8613 556.117 59.9893 555.456 60.096C554.816 60.224 554.229 60.288 553.696 60.288C551.669 60.288 550.218 59.8507 549.344 58.976C548.469 58.08 548.032 56.5973 548.032 54.528V47.296H545.92V44.192H548.128L548.64 40.416H551.744V44.192H556.8V47.296H551.744V54.4C551.744 55.3387 551.946 55.9787 552.352 56.32C552.757 56.6613 553.482 56.832 554.528 56.832C554.89 56.832 555.317 56.8107 555.808 56.768C556.298 56.704 556.693 56.6293 556.992 56.544ZM573.412 52.064C573.412 55.0507 572.836 57.1733 571.684 58.432C570.553 59.6693 568.612 60.288 565.86 60.288C563.065 60.288 561.102 59.68 559.972 58.464C558.841 57.2267 558.276 55.0933 558.276 52.064C558.276 49.0987 558.852 46.9973 560.004 45.76C561.156 44.5013 563.108 43.872 565.86 43.872C568.633 43.872 570.585 44.4907 571.716 45.728C572.846 46.944 573.412 49.056 573.412 52.064ZM561.988 52.032C561.988 53.9947 562.233 55.2853 562.724 55.904C563.214 56.5227 564.26 56.832 565.86 56.832C567.417 56.832 568.441 56.5227 568.932 55.904C569.444 55.264 569.7 53.9733 569.7 52.032C569.7 50.048 569.454 48.7467 568.964 48.128C568.494 47.5093 567.46 47.2 565.86 47.2C564.281 47.2 563.236 47.52 562.724 48.16C562.233 48.8 561.988 50.0907 561.988 52.032ZM582.18 47.072C581.049 47.072 580.271 47.1893 579.844 47.424C579.439 47.6373 579.236 48.1173 579.236 48.864C579.236 49.2267 579.321 49.504 579.492 49.696C579.663 49.8667 579.951 49.984 580.356 50.048L584.292 50.624C585.551 50.7947 586.425 51.1893 586.916 51.808C587.428 52.4267 587.684 53.408 587.684 54.752C587.684 56.6933 587.236 58.1013 586.34 58.976C585.444 59.8507 583.919 60.288 581.764 60.288C580.527 60.288 579.396 60.2347 578.372 60.128C577.348 60.0213 576.484 59.8613 575.78 59.648V56.352C576.441 56.5227 577.252 56.672 578.212 56.8C579.172 56.9067 580.143 56.96 581.124 56.96C582.233 56.96 582.98 56.8213 583.364 56.544C583.769 56.2667 583.972 55.744 583.972 54.976C583.972 54.592 583.876 54.304 583.684 54.112C583.492 53.8987 583.172 53.76 582.724 53.696L578.724 53.12C577.636 52.9707 576.836 52.5653 576.324 51.904C575.812 51.2213 575.556 50.24 575.556 48.96C575.556 47.232 576.079 45.952 577.124 45.12C578.191 44.288 579.801 43.872 581.956 43.872C582.831 43.872 583.631 43.8933 584.356 43.936C585.081 43.9787 585.828 44.064 586.596 44.192V47.36C586.041 47.2747 585.369 47.2107 584.58 47.168C583.812 47.104 583.012 47.072 582.18 47.072Z" fill="white"/>
</svg>
