<svg width="96" height="96" viewBox="0 0 96 96" fill="none" xmlns="http://www.w3.org/2000/svg">
<rect width="96" height="96" rx="24" fill="white"/>
<path d="M27.0176 56.3079C50.1472 64.7835 59.7094 72.8142 69.0563 80.8377C83.094 57.3428 83.3926 36.2829 79.2842 16.0021C69.23 34.8168 51.632 48.1251 27.0176 56.3079Z" fill="#FDBE4C"/>
<path d="M18.367 41.4054C38.5149 55.5786 45.6726 65.8103 52.6248 75.98C72.2649 56.9184 78.0046 36.6529 79.285 16C64.7036 31.5717 44.2631 39.8722 18.367 41.4054Z" fill="#EE654C"/>
<path d="M13.8674 24.7735C29.6604 43.6783 33.926 55.4144 38.0094 67.0365C61.9138 53.7079 72.7029 35.6183 79.2846 16.0032C61.17 27.2702 39.2774 29.995 13.8674 24.7735Z" fill="#55B788"/>
</svg>
